<svg
	xmlns="http://www.w3.org/2000/svg" style="display: none;">
	<symbol id="school" viewBox="0 0 512 512">
		<title>school</title>
		<path d="M256,248a48,48,0,1,0-48-48A48.055,48.055,0,0,0,256,248Zm0-80a32,32,0,1,1-32,32A32.036,32.036,0,0,1,256,168Z"/>
		<path d="M256,208h8a8,8,0,0,0,0-16v-8a8,8,0,0,0-16,0v16A8,8,0,0,0,256,208Z"/>
		<path d="M320,304V272a8,8,0,0,0-8-8H200a8,8,0,0,0-8,8v32a8,8,0,0,0,8,8H312A8,8,0,0,0,320,304Zm-16-8H208V280h96Z"/>
		<path d="M72,264h64a8,8,0,0,0,0-16V192a8,8,0,0,0-8-8H80a8,8,0,0,0-8,8v56a8,8,0,0,0,0,16Zm16-64h32v48H88Z"/>
		<path d="M136,344V288a8,8,0,0,0-8-8H80a8,8,0,0,0-8,8v56a8,8,0,0,0,0,16h64a8,8,0,0,0,0-16ZM88,296h32v48H88Z"/>
		<path d="M136,440V384a8,8,0,0,0-8-8H80a8,8,0,0,0-8,8v56a8,8,0,0,0,0,16h64a8,8,0,0,0,0-16ZM88,392h32v48H88Z"/>
		<path d="M376,264h64a8,8,0,0,0,0-16V192a8,8,0,0,0-8-8H384a8,8,0,0,0-8,8v56a8,8,0,0,0,0,16Zm16-64h32v48H392Z"/>
		<path d="M376,360h64a8,8,0,0,0,0-16V288a8,8,0,0,0-8-8H384a8,8,0,0,0-8,8v56a8,8,0,0,0,0,16Zm16-64h32v48H392Z"/>
		<path d="M376,456h64a8,8,0,0,0,0-16V384a8,8,0,0,0-8-8H384a8,8,0,0,0-8,8v56a8,8,0,0,0,0,16Zm16-64h32v48H392Z"/>
		<path d="M488,160a8,8,0,0,0,0-16H346.6L264,83.926V65.444l38.685,6.447A8,8,0,0,0,312,64V32a8,8,0,0,0-6.685-7.891l-48-8v.008A7.954,7.954,0,0,0,248,24V83.926L165.4,144H24a8,8,0,0,0,0,16h8V480H24a8,8,0,0,0,0,16H488a8,8,0,0,0,0-16h-8V160ZM248,480H216V392a40.067,40.067,0,0,1,32-39.195Zm16-127.195A40.067,40.067,0,0,1,296,392v88H264ZM256,336a56.064,56.064,0,0,0-56,56v88H176V156.074l80-58.182,80,58.182V480H312V392A56.064,56.064,0,0,0,256,336ZM296,54.556l-32-5.333V33.444l32,5.333ZM48,160H160V480H48ZM464,480H352V160H464Z"/>
	</symbol>
	<symbol id="idea" viewBox="0 0 512.001 512.001">
		<title>idea</title>
		<g>
			<g>
				<path d="M357.191,118.807c-32.602-29.175-74.71-42.555-118.567-37.677c-34.343,3.82-66.757,19.799-91.271,44.993 c-24.496,25.175-39.614,58.011-42.568,92.461c-2.559,29.836,3.529,59.34,17.605,85.321c13.563,25.035,33.85,45.724,58.668,59.831 c12.114,6.886,19.346,18.828,19.346,31.945v60.724c0,12.976,10.557,23.532,23.532,23.532h0.516v8.532 c0,12.976,10.557,23.532,23.532,23.532h16.032c12.976,0,23.532-10.557,23.532-23.532v-8.532h0.516 c12.976,0,23.532-10.557,23.532-23.532v-59.449c0-13.785,7.586-26.399,20.294-33.743c22.658-13.094,41.658-31.901,54.946-54.387 c13.71-23.198,20.956-49.78,20.956-76.875C407.792,188.826,389.349,147.586,357.191,118.807z M272.55,488.468L272.55,488.468 c-0.001,4.705-3.829,8.532-8.533,8.532h-16.032c-4.705,0-8.532-3.828-8.532-8.532v-8.532h33.097V488.468z M296.597,432.872h-0.516 c-4.142,0-7.5,3.358-7.5,7.5c0,4.142,3.358,7.5,7.5,7.5h0.516v8.532c0.001,4.704-3.827,8.532-8.532,8.532h-64.129 c-4.705,0-8.532-3.828-8.532-8.532v-8.532h48.613c4.142,0,7.5-3.358,7.5-7.5c0-4.142-3.358-7.5-7.5-7.5h-48.613v-17.064h81.193 V432.872z M324.386,350.225c-17.4,10.056-27.789,27.525-27.789,46.73v3.852h-81.193v-5.127c0-18.305-10.32-35.542-26.934-44.985 c-6.862-3.9-13.335-8.364-19.371-13.321c1.482-1.114,3.085-2.068,4.781-2.822l20.778-9.235 c18.23,12.009,39.352,18.344,61.343,18.344c21.961,0,43.102-6.347,61.331-18.35l20.79,9.24c1.719,0.764,3.32,1.705,4.794,2.815 C337.117,342.137,330.923,346.447,324.386,350.225z M221.434,209.138c-2.808-3.043-7.553-3.234-10.598-0.424 c-3.751,3.462-7.499,5.7-11.137,6.65c-0.088,0.023-0.153,0.033-0.199,0.037c-0.054-0.104-0.127-0.325-0.127-0.678v-14.835 c0-26.805,21.808-48.613,48.613-48.613h16.032c26.806,0,48.613,21.808,48.613,48.613v1.635c0,0.243-0.145,0.454-0.338,0.492 c-44.912,8.873-67.437-7.847-75.037-15.446c-2.929-2.929-7.678-2.929-10.606,0c-2.929,2.929-2.929,7.678,0,10.606 c23.291,23.29,57.275,23.711,77.965,21.224v13.553c0,26.805-21.808,48.613-48.613,48.613s-48.613-21.808-48.613-48.613v-3.373 c4.68-1.855,9.248-4.807,13.621-8.843C224.053,216.927,224.244,212.182,221.434,209.138z M231.438,293.678v-3.052 c7.562,3.178,15.861,4.939,24.565,4.939c8.703,0,17.001-1.76,24.563-4.938v3.051c0,9.29,5.485,17.73,13.975,21.504l5.955,2.647 c-13.676,7.106-28.843,10.833-44.495,10.833c-15.67,0-30.824-3.725-44.494-10.833l5.956-2.647 C225.952,311.409,231.438,302.968,231.438,293.678z M373.925,301.193c-5.569,9.424-12.263,18.118-19.872,25.924 c-2.952-2.555-6.276-4.69-9.838-6.273l-43.582-19.37c-3.079-1.368-5.067-4.429-5.067-7.797V281.71 c14.64-11.665,24.05-29.628,24.05-49.758v-16.847c4.823-2.665,8.016-7.815,8.016-13.583v-1.635 c0-35.076-28.537-63.613-63.613-63.613h-16.032c-35.076,0-63.613,28.537-63.613,63.613v14.835c0,5.07,2.182,9.663,5.985,12.602 c0.645,0.498,1.324,0.936,2.031,1.316v3.312c0,20.13,9.409,38.093,24.048,49.757v11.969c0,3.368-1.989,6.429-5.067,7.797 l-43.582,19.37c-3.574,1.588-6.904,3.714-9.857,6.273c-8.774-9.001-16.308-19.199-22.354-30.359 c-12.675-23.397-18.156-49.986-15.848-76.895c2.659-31.007,16.287-60.583,38.373-83.281c22.098-22.709,51.283-37.108,82.18-40.545 c5.338-0.594,10.646-0.888,15.91-0.888c33.739,0,65.58,12.091,90.995,34.835c28.982,25.937,45.604,63.102,45.604,101.966 C392.792,256.363,386.268,280.306,373.925,301.193z"/>
			</g>
		</g>
		<g>
			<g>
				<path d="M256.001,0c-4.142,0-7.5,3.358-7.5,7.5v48.097c0,4.142,3.358,7.5,7.5,7.5c4.142,0,7.5-3.358,7.5-7.5V7.5 C263.501,3.358,260.143,0,256.001,0z"/>
			</g>
		</g>
		<g>
			<g>
				<path d="M480.453,224.452h-48.097c-4.142,0-7.5,3.358-7.5,7.5c0,4.142,3.358,7.5,7.5,7.5h48.097c4.142,0,7.5-3.358,7.5-7.5 C487.953,227.81,484.595,224.452,480.453,224.452z"/>
			</g>
		</g>
		<g>
			<g>
				<path d="M79.646,224.452H31.549c-4.142,0-7.5,3.358-7.5,7.5c0,4.142,3.358,7.5,7.5,7.5h48.097c4.142,0,7.5-3.358,7.5-7.5 C87.146,227.81,83.788,224.452,79.646,224.452z"/>
			</g>
		</g>
		<g>
			<g>
				<path d="M420.015,67.937c-2.928-2.929-7.677-2.929-10.606,0l-34.01,34.01c-2.929,2.929-2.929,7.678,0,10.606 c1.464,1.464,3.384,2.197,5.303,2.197s3.839-0.732,5.303-2.197l34.01-34.01C422.944,75.614,422.944,70.865,420.015,67.937z"/>
			</g>
		</g>
		<g>
			<g>
				<path d="M136.602,351.35c-2.928-2.929-7.677-2.929-10.606,0l-34.01,34.01c-2.929,2.929-2.929,7.678,0,10.606 c1.464,1.464,3.384,2.197,5.303,2.197s3.839-0.732,5.303-2.197l34.01-34.01C139.531,359.027,139.531,354.278,136.602,351.35z"/>
			</g>
		</g>
		<g>
			<g>
				<path d="M420.016,385.36l-34.01-34.01c-2.929-2.929-7.678-2.929-10.606,0c-2.929,2.929-2.929,7.678,0,10.606l34.01,34.01 c1.464,1.464,3.384,2.197,5.303,2.197s3.839-0.732,5.303-2.197C422.945,393.037,422.945,388.288,420.016,385.36z"/>
			</g>
		</g>
		<g>
			<g>
				<path d="M136.602,101.947l-34.01-34.01c-2.929-2.929-7.678-2.929-10.606,0c-2.929,2.929-2.929,7.678,0,10.606l34.01,34.01 c1.464,1.464,3.384,2.197,5.303,2.197s3.839-0.732,5.303-2.197C139.531,109.624,139.531,104.875,136.602,101.947z"/>
			</g>
		</g>
	</symbol>
	<symbol id="team" viewBox="0 0 512 512">
		<title>team</title>
		<g>
			<g>
				<path d="M451.72,237.26c-17.422-8.71-50.087-8.811-51.469-8.811c-4.142,0-7.5,3.358-7.5,7.5c0,4.142,3.358,7.5,7.5,7.5 c8.429,0.001,32.902,1.299,44.761,7.228c1.077,0.539,2.221,0.793,3.348,0.793c2.751,0,5.4-1.52,6.714-4.147 C456.927,243.618,455.425,239.113,451.72,237.26z"/>
			</g>
		</g>
		<g>
			<g>
				<path d="M489.112,344.041l-30.975-8.85c-1.337-0.382-2.271-1.62-2.271-3.011v-10.339c2.52-1.746,4.924-3.7,7.171-5.881 c10.89-10.568,16.887-24.743,16.887-39.915v-14.267l2.995-5.989c3.287-6.575,5.024-13.936,5.024-21.286v-38.65 c0-4.142-3.358-7.5-7.5-7.5H408.27c-26.244,0-47.596,21.352-47.596,47.596v0.447c0,6.112,1.445,12.233,4.178,17.699l3.841,7.682 v12.25c0,19.414,9.567,36.833,24.058,47.315l0.002,10.836c0,1.671,0,2.363-6.193,4.133l-15.114,4.318l-43.721-15.898 c0.157-2.063-0.539-4.161-2.044-5.742l-13.971-14.678v-24.64c1.477-1.217,2.933-2.467,4.344-3.789 c17.625-16.52,27.733-39.844,27.733-63.991v-19.678c5.322-11.581,8.019-23.836,8.019-36.457v-80.19c0-4.142-3.358-7.5-7.5-7.5 H232.037c-39.51,0-71.653,32.144-71.653,71.653v16.039c0,12.621,2.697,24.876,8.019,36.457v16.931 c0,28.036,12.466,53.294,32.077,69.946v25.22l-13.971,14.678c-1.505,1.581-2.201,3.679-2.044,5.742l-46.145,16.779 c-3.344,1.216-6.451,2.863-9.272,4.858l-7.246-3.623c21.57-9.389,28.403-22.594,28.731-23.25c1.056-2.111,1.056-4.597,0-6.708 c-5.407-10.814-6.062-30.635-6.588-46.561c-0.175-5.302-0.341-10.311-0.658-14.771c-2.557-35.974-29.905-63.103-63.615-63.103 s-61.059,27.128-63.615,63.103c-0.317,4.461-0.483,9.47-0.658,14.773c-0.526,15.925-1.182,35.744-6.588,46.558 c-1.056,2.111-1.056,4.597,0,6.708c0.328,0.656,7.147,13.834,28.76,23.234l-20.127,10.063C6.684,358.176,0,368.991,0,381.02 v55.409c0,4.142,3.358,7.5,7.5,7.5s7.5-3.358,7.5-7.5V381.02c0-6.312,3.507-11.987,9.152-14.81l25.063-12.531l8.718,8.285 c6.096,5.793,13.916,8.688,21.739,8.688c7.821,0,15.645-2.897,21.739-8.688l8.717-8.284l8.172,4.086 c-3.848,6.157-6.032,13.377-6.032,20.94v57.725c0,4.142,3.358,7.5,7.5,7.5c4.142,0,7.5-3.358,7.5-7.5v-57.725 c0-10.296,6.501-19.578,16.178-23.097l48.652-17.691l20.253,30.381c2.589,3.884,6.738,6.375,11.383,6.835 c0.518,0.051,1.033,0.076,1.547,0.076c4.098,0,8.023-1.613,10.957-4.546l12.356-12.356v78.124c0,4.142,3.358,7.5,7.5,7.5 c4.142,0,7.5-3.358,7.5-7.5v-78.124l12.356,12.356c2.933,2.934,6.858,4.547,10.957,4.547c0.513,0,1.029-0.025,1.546-0.076 c4.646-0.46,8.795-2.951,11.384-6.835l20.254-30.38l48.651,17.691c9.676,3.519,16.178,12.801,16.178,23.097v57.725 c0,4.142,3.358,7.5,7.5,7.5c4.142,0,7.5-3.358,7.5-7.5v-57.725c0-10.428-4.143-20.208-11.093-27.441l1.853-0.529 c1.869-0.534,4.419-1.265,6.979-2.52l19.149,19.149v69.066c0,4.142,3.358,7.5,7.5,7.5c4.142,0,7.5-3.358,7.5-7.5v-69.066 l19.016-19.016c1.011,0.514,2.073,0.948,3.191,1.267l30.976,8.85c7.07,2.02,12.009,8.567,12.009,15.921v62.044 c0,4.142,3.358,7.5,7.5,7.5c4.142,0,7.5-3.358,7.5-7.5v-62.044C512,360.371,502.588,347.892,489.112,344.041z M48.115,330.794 c-14.029-5.048-21.066-11.778-24.07-15.453c2.048-5.354,3.376-11.486,4.275-17.959c4.136,9.917,11.063,18.383,19.795,24.423 V330.794z M91.08,351.092c-6.397,6.078-16.418,6.077-22.813-0.001l-6.975-6.628c1.177-2.205,1.824-4.705,1.824-7.324v-7.994 c5.232,1.635,10.794,2.517,16.558,2.517c5.757,0,11.316-0.886,16.557-2.512l-0.001,7.988c0,2.62,0.646,5.121,1.824,7.327 L91.08,351.092z M79.676,316.662c-22.396,0-40.615-18.22-40.615-40.615c0-4.142-3.358-7.5-7.5-7.5c-0.42,0-0.83,0.043-1.231,0.11 c0.022-0.645,0.043-1.291,0.065-1.93c0.167-5.157,0.328-10.028,0.625-14.206c0.958-13.476,6.343-25.894,15.163-34.968 c8.899-9.156,20.793-14.198,33.491-14.198s24.591,5.042,33.491,14.198c8.82,9.074,14.205,21.492,15.163,34.968 c0.296,4.177,0.458,9.047,0.628,14.203c0.015,0.443,0.03,0.892,0.045,1.338c-8.16-12.572-20.762-21.837-37.045-27.069 c-15.043-4.833-27.981-4.534-28.527-4.52c-1.964,0.055-3.828,0.877-5.191,2.291l-13.532,14.034 c-2.875,2.982-2.789,7.73,0.193,10.605s7.73,2.788,10.605-0.193l11.26-11.677c9.697,0.474,40.894,4.102,53.027,30.819 C116.738,302.04,99.816,316.662,79.676,316.662z M111.229,330.819l0.001-8.945c8.725-6.007,15.662-14.457,19.801-24.449 c0.899,6.458,2.226,12.576,4.27,17.918C132.314,318.983,125.244,325.773,111.229,330.819z M183.403,209.145v-18.608 c0-1.129-0.255-2.244-0.746-3.261c-4.826-9.994-7.273-20.598-7.273-31.518V139.72c0-31.239,25.415-56.653,56.653-56.653h104.769 v72.692c0,10.92-2.447,21.524-7.273,31.518c-0.491,1.017-0.746,2.132-0.746,3.261v21.355c0,20.311-8.165,39.15-22.991,53.047 c-1.851,1.734-3.772,3.36-5.758,4.875c-0.044,0.03-0.086,0.063-0.129,0.094c-13.889,10.545-30.901,15.67-48.667,14.519 C213.201,281.965,183.403,248.897,183.403,209.145z M225.632,360.056c-0.052,0.052-0.173,0.175-0.418,0.149 c-0.244-0.024-0.34-0.167-0.381-0.229l-23.325-34.988l7.506-7.887l35.385,24.187L225.632,360.056z M256.095,331.113 l-40.615-27.762v-14c10.509,5.681,22.276,9.234,34.791,10.044c1.977,0.128,3.942,0.191,5.901,0.191 c14.341,0,28.143-3.428,40.538-9.935v13.7L256.095,331.113z M287.357,359.978c-0.041,0.062-0.137,0.205-0.381,0.229 c-0.245,0.031-0.365-0.098-0.418-0.149l-18.767-18.767l35.385-24.188l7.507,7.887L287.357,359.978z M424.308,353.65l-17.02-17.019 c0.297-1.349,0.465-2.826,0.464-4.455l-0.001-3.165c4.723,1.55,9.701,2.47,14.852,2.624c0.578,0.018,1.151,0.026,1.727,0.026 c5.692,0,11.248-0.86,16.536-2.501v3.02c0,1.496,0.188,2.962,0.542,4.371L424.308,353.65z M452.591,305.196 c-7.949,7.714-18.45,11.788-29.537,11.446c-21.704-0.651-39.361-19.768-39.361-42.613v-14.021c0-1.165-0.271-2.313-0.792-3.354 l-4.633-9.266c-1.697-3.395-2.594-7.195-2.594-10.991v-0.447c0-17.974,14.623-32.596,32.596-32.596h64.673v31.15 c0,5.034-1.19,10.075-3.441,14.578l-3.786,7.572c-0.521,1.042-0.792,2.189-0.792,3.354v16.038 C464.924,287.126,460.544,297.478,452.591,305.196z"/>
			</g>
		</g>
		<g>
			<g>
				<path d="M472.423,380.814c-4.142,0-7.5,3.358-7.5,7.5v48.115c0,4.142,3.358,7.5,7.5,7.5c4.142,0,7.5-3.358,7.5-7.5v-48.115 C479.923,384.173,476.565,380.814,472.423,380.814z"/>
			</g>
		</g>
		<g>
			<g>
				<path d="M39.577,390.728c-4.142,0-7.5,3.358-7.5,7.5v38.201c0,4.142,3.358,7.5,7.5,7.5c4.142,0,7.5-3.358,7.5-7.5v-38.201 C47.077,394.087,43.719,390.728,39.577,390.728z"/>
			</g>
		</g>
		<g>
			<g>
				<path d="M317.532,158.475c-28.366-28.366-87.715-22.943-111.917-19.295c-7.623,1.149-13.155,7.6-13.155,15.339v17.278 c0,4.142,3.358,7.5,7.5,7.5c4.142,0,7.5-3.358,7.5-7.5v-17.279c0-0.255,0.168-0.473,0.392-0.507 c9.667-1.457,28.85-3.705,48.725-2.38c23.388,1.557,40.328,7.428,50.349,17.45c2.929,2.929,7.678,2.929,10.606,0 C320.461,166.152,320.461,161.403,317.532,158.475z"/>
			</g>
		</g>
		<g>
			<g>
				<path d="M167.884,396.853c-4.142,0-7.5,3.358-7.5,7.5v32.077c0,4.142,3.358,7.5,7.5,7.5c4.142,0,7.5-3.358,7.5-7.5v-32.077 C175.384,400.212,172.026,396.853,167.884,396.853z"/>
			</g>
		</g>
		<g>
			<g>
				<path d="M344.306,396.853c-4.142,0-7.5,3.358-7.5,7.5v32.077c0,4.142,3.358,7.5,7.5,7.5c4.142,0,7.5-3.358,7.5-7.5v-32.077 C351.806,400.212,348.448,396.853,344.306,396.853z"/>
			</g>
		</g>
	</symbol>
	<symbol id="growth" viewBox="0 -9 418.93516 418">
		<title>growth</title>
		<path d="m208.070312 400.226562c-14.59375 0-29.179687-2.941406-42.6875-8.816406l-64.589843-28.078125c-23.367188-10.164062-48.074219-16.601562-73.433594-19.136719l-21.210937-2.121093c-3.492188-.347657-6.148438-3.285157-6.148438-6.792969v-66.535156c0-1.476563.480469-2.914063 1.367188-4.09375 1.585937-2.121094 39.601562-51.785156 97.671874-38.863282 32.660157 7.257813 58.957032 20.839844 75.265626 30.957032 11.839843 7.34375 25.71875 11.222656 40.136718 11.222656h64.589844c11.132812 0 20.917969 5.890625 26.390625 14.726562l55.628906-64.089843c10.785157-14.402344 28.429688-23.222657 46.902344-23.222657h4.15625c2.308594 0 4.457031 1.164063 5.714844 3.09375 1.261719 1.929688 1.460937 4.371094.535156 6.480469l-50.3125 114.34375c-11 25.007813-33.398437 43.898438-59.910156 50.527344l-8.851563 2.210937-51.492187 20.597657c-12.671875 5.066406-26.199219 7.589843-39.722657 7.589843zm-194.414062-71.125 15.0625 1.507813c26.769531 2.675781 52.851562 9.476563 77.523438 20.203125l64.585937 28.078125c22.710937 9.875 48.902344 10.261719 71.898437 1.0625l51.914063-20.765625c.289063-.113281.582031-.207031.882813-.28125l9.300781-2.328125c22.449219-5.613281 41.414062-21.605469 50.722656-42.777344l45.890625-104.292969c-11.75 1.730469-22.5625 8.0625-29.765625 17.664063l-61.625 71.023437c.007813.265626.011719.527344.011719.796876 0 17.105468-13.917969 31.023437-31.023438 31.023437h-90.117187c-11.714844 0-23.292969 1.878906-34.40625 5.582031l-2.507813-6.367187-2.121094-6.488281.347657-.113282c12.472656-4.15625 25.5-6.269531 38.6875-6.269531h90.117187c9.574219 0 17.371094-7.792969 17.371094-17.371094s-7.792969-17.371093-17.371094-17.371093h-64.589844c-16.964843 0-33.332031-4.589844-47.332031-13.273438-15.40625-9.558594-40.242187-22.382812-71.027343-29.230469-43.976563-9.753906-75.621094 23.996094-82.425782 32.046875v57.941406zm0 0"/>
		<path d="m268.867188 193.839844c-10.5 0-22.273438-3.242188-35.234376-9.722656-1.570312-.789063-2.78125-2.15625-3.375-3.808594-.527343-1.480469-12.726562-36.570313 6.660157-62.519532 14.089843-18.863281 40.582031-27.359374 78.785156-25.230468 3.484375.191406 6.261719 2.984375 6.433594 6.476562.136719 2.710938 2.953125 66.699219-29.675781 88.003906-6.9375 4.535157-14.820313 6.800782-23.59375 6.800782zm-26.527344-20.679688c17.933594 8.410156 32.269531 9.234375 42.660156 2.449219 19.347656-12.636719 23.53125-50.148437 23.632812-69.671875-29.933593-.730469-50.3125 6.015625-60.777343 20.019531-12.453125 16.675781-7.613281 39.613281-5.515625 47.203125zm0 0"/>
		<path d="m164.460938 104.390625c-12.105469 0-26.070313-2.59375-38.257813-11.519531-20.671875-15.148438-30.171875-43.988282-28.242187-85.714844.164062-3.488281 2.929687-6.292969 6.417968-6.5 2.953125-.167969 72.851563-3.898438 96.371094 31.40625 10.953125 16.433594 10.054688 37.957031-2.660156 63.984375-.773438 1.582031-2.125 2.804687-3.777344 3.410156-.917969.339844-13.734375 4.933594-29.851562 4.933594zm27.496093-11.339844h.066407zm-80.558593-78.960937c-.589844 33.421875 7.09375 56.203125 22.871093 67.765625 18.890625 13.839843 44.683594 7.957031 52.792969 5.59375 9.277344-20.132813 10.0625-36.207031 2.328125-47.816407-14.375-21.578124-56.53125-25.796874-77.992187-25.542968zm0 0"/>
		<path d="m217.777344 279.21875c-.214844 0-.429688-.011719-.648438-.03125-3.636718-.34375-6.359375-3.488281-6.175781-7.140625.402344-8.03125 1.089844-15.648437 2.023437-22.867187 2.839844-48.3125 1.375-160.820313-69.757812-191.945313-3.453125-1.511719-5.03125-5.535156-3.519531-8.992187 1.507812-3.449219 5.542969-5.023438 8.992187-3.515626 41.917969 18.339844 68.289063 64 76.246094 132.042969.714844 6.097657 1.25 12.109375 1.648438 17.964844 18.734374-47.339844 47.394531-64.066406 49.101562-65.023437 3.28125-1.855469 7.445312-.675782 9.296875 2.601562 1.839844 3.28125.683594 7.433594-2.585937 9.285156-.722657.421875-44.671876 26.796875-55.703126 108.132813-.839843 13.914062-2.050781 22.785156-2.164062 23.597656-.472656 3.40625-3.382812 5.890625-6.753906 5.890625zm0 0"/>
	</symbol>
	<symbol id="handshake" viewBox="0 -3 511.99992 511">
		<title>handshake</title>
		<path d="m509.914062 214.859375-85.695312-111.320313c-3.171875-4.117187-8.957031-5.132812-13.34375-2.34375l-55.328125 35.1875h-72.160156c-.933594 0-1.863281.199219-2.761719.460938l-55.949219 16.105469-58.054687-15.878907-56.410156-35.875c-4.3125-2.742187-9.992188-1.8125-13.199219 2.164063l-94.785157 117.40625c-3.40625 4.21875-2.84375 10.378906 1.265626 13.914063l49.679687 42.753906 44.570313 60.0625c-13.035157 13.886718-12.78125 35.789062.78125 49.355468 6.011718 6.007813 13.65625 9.402344 21.519531 10.191407-.273438 1.78125-.414063 3.589843-.414063 5.425781 0 9.476562 3.691406 18.386719 10.390625 25.085938 6.703125 6.703124 15.613281 10.394531 25.089844 10.394531.128906 0 .253906-.007813.378906-.011719-.003906.242188-.015625.480469-.015625.722656 0 9.476563 3.691406 18.386719 10.390625 25.089844 6.703125 6.699219 15.613281 10.390625 25.089844 10.390625 1.871094 0 3.722656-.152344 5.539063-.433594.769531 7.890625 4.171874 15.570313 10.203124 21.601563 6.914063 6.917968 16 10.375 25.085938 10.375s18.171875-3.457032 25.089844-10.375l5.425781-5.425782 2.277344 1.835938c6.859375 6.644531 15.765625 9.964844 24.671875 9.964844 9.085937 0 18.171875-3.457032 25.085937-10.375 7.058594-7.058594 10.515625-16.375 10.371094-25.644532 9.265625.140626 18.585937-3.3125 25.644531-10.367187 7.050782-7.054687 10.507813-16.363281 10.371094-25.628906 9.652344.152343 18.808594-3.554688 25.640625-10.386719 7.058594-7.058594 10.515625-16.375 10.371094-25.644531 9.273437.140625 18.585937-3.3125 25.644531-10.371094 12.046875-12.046875 13.597656-30.667969 4.664062-44.414063l32.542969-68.15625 48.925781-42.101562c4.042969-3.480469 4.660157-9.511719 1.40625-13.734375zm-402.914062-91.910156 40.5625 25.792969-88.238281 107.5-35.359375-30.433594zm5.722656 227.921875 12.242188-12.242188c.371094-.371094.761718-.722656 1.160156-1.050781 2.394531-1.953125 5.292969-3.117187 8.363281-3.394531.085938-.007813.175781-.007813.261719-.011719.4375-.035156.875-.058594 1.316406-.054687 4.195313.058593 8.09375 1.773437 10.984375 4.824218 5.671875 5.996094 5.367188 15.792969-.679687 21.839844l-11.871094 11.871094c-6.003906 6.003906-15.773438 6.003906-21.777344 0-6.003906-6.007813-6.003906-15.777344 0-21.78125zm31.496094 62.484375c-2.910156-2.90625-4.511719-6.773438-4.511719-10.886719s1.601563-7.980469 4.511719-10.890625l23.738281-23.738281c4.546875-4.546875 11.695313-5.792969 17.507813-3.023438 5.992187 2.855469 9.363281 9.359375 8.484375 15.902344-.46875 3.492188-2.09375 6.78125-4.585938 9.277344l-23.363281 23.359375c-2.910156 2.910156-6.777344 4.511719-10.890625 4.511719s-7.980469-1.601563-10.890625-4.511719zm35.84375 36.191406c-2.910156-2.90625-4.511719-6.773437-4.511719-10.886719 0-4.113281 1.601563-7.980468 4.511719-10.890625l23.734375-23.738281c4.863281-4.859375 12.664063-5.90625 18.617187-2.441406 5.4375 3.164062 8.285157 9.375 7.351563 15.5625-.511719 3.402344-2.128906 6.601562-4.5625 9.035156l-23.359375 23.359375c-2.910156 2.910156-6.777344 4.511719-10.890625 4.511719s-7.980469-1.601563-10.890625-4.511719zm40.828125 31.5625c-6.003906-6.003906-6.003906-15.773437 0-21.777344l12.242187-12.242187c.371094-.371094.757813-.71875 1.15625-1.046875.011719-.007813.019532-.015625.027344-.023438 1.992188-1.617187 4.332032-2.699219 6.828125-3.171875.058594-.007812.117188-.015625.175781-.023437.429688-.078125.867188-.140625 1.304688-.179688.175781-.015625.351562-.015625.53125-.027343.359375-.019532.714844-.042969 1.078125-.039063 4.191406.058594 8.09375 1.769531 10.984375 4.824219.355469.375.6875.765625.992188 1.167968 4.617187 6.035157 3.996093 15-1.734376 20.734376l-11.808593 11.808593c-6.003907 6.003907-15.773438 6-21.777344-.003906zm187.285156-112.042969c-6.003906 6.007813-15.773437 6.003906-21.777343 0-.21875-.21875-.449219-.421875-.683594-.613281l-64.554688-65.234375c-3.902344-3.941406-10.257812-3.972656-14.199218-.070312-3.941407 3.898437-3.972657 10.253906-.074219 14.195312l65.253906 65.933594c.007813.007812.015625.015625.023437.023437 6.003907 6.003907 6.003907 15.777344 0 21.78125-2.910156 2.910157-6.777343 4.511719-10.890624 4.511719-4.117188 0-7.984376-1.601562-10.890626-4.511719l-43.652343-44.105469c-3.898438-3.941406-10.253907-3.972656-14.195313-.074218-3.941406 3.902344-3.972656 10.257812-.074218 14.199218l42.984374 43.429688c.21875.273438.453126.535156.703126.785156 6.003906 6.003906 6.003906 15.777344 0 21.78125-6.007813 6.003906-15.78125 6-21.785157-.003906l-23.824219-24.074219c-3.902343-3.941406-10.257812-3.976562-14.199218-.074219-3.941406 3.898438-3.972656 10.253907-.074219 14.195313l23.160156 23.398437c.21875.273438.453125.539063.707031.789063 6.003907 6.003906 6.003907 15.777344 0 21.78125-6.003906 6.007813-15.773437 6.003906-21.777343 0-.691407-.691406-1.503907-1.222656-2.277344-1.816406-.65625-.5-.828125-.847657-.5-1.644531.332031-.808594.828125-1.539063 1.160156-2.351563.367188-.90625.664063-1.839844.953125-2.777344 1.539063-4.960937 1.992188-10.296875 1.300782-15.445312-1.328126-9.878907-6.761719-18.792969-14.996094-24.433594-4.449219-3.042969-9.597656-5.039063-14.933594-5.789063 2.585938-11.40625-.519531-23.773437-8.597656-32.308593-6.648438-7.023438-15.628906-10.964844-25.289063-11.097657-.351562-.003906-.703125-.003906-1.058593 0 .214843-9.21875-3.136719-18.378906-9.492188-25.09375-6.652344-7.023437-15.632812-10.964843-25.289062-11.097656-2.871094-.039062-5.769532.265625-8.566407.910156-1.195312-8.316406-5.386719-16.011718-11.734375-21.515624-6.308594-5.460938-14.242187-8.492188-22.691406-8.609376-8.894531-.128906-17.632812 3.152344-24.238281 9.117188l-38.808594-52.292969 92.84375-113.109375 29.589844 8.09375-38.644531 68.191406c-4.671876 8.246094-5.851563 17.816407-3.324219 26.949219 2.527343 9.136719 8.457031 16.738281 16.703125 21.410157.515625.292968 1.035156.570312 1.5625.835937.039062.019531.078125.039063.121094.058594 1.386718.691406 2.8125 1.285156 4.257812 1.785156 6.730469 2.332031 14 2.585937 21.011719.648437 9.132812-2.527343 16.734375-8.460937 21.40625-16.703124l25.113281-44.316407 44.839844 3.179688 119.402344 119.398437c6 6.007813 6 15.777344-.003907 21.78125zm4.160157-46.019531-112.011719-112.007813c-.210938-.214843-.433594-.417968-.664063-.609374-1.613281-1.34375-3.613281-2.15625-5.722656-2.304688l-54.902344-3.894531c-3.796875-.261719-7.570312 1.757812-9.445312 5.066406l-28.234375 49.828125c-2.027344 3.578125-5.328125 6.152344-9.292969 7.25-3.960938 1.097656-8.117188.582031-11.699219-1.445312-3.578125-2.027344-6.152343-5.328126-7.25-9.292969-1.097656-3.964844-.585937-8.121094 1.445313-11.699219l37.691406-66.519531 15.273438-4.394531c.101562-.03125.199218-.070313.300781-.101563l57.003906-16.460937h68.875l85.984375 109.304687zm40.503906-73.039063-79.515625-101.136718 40.582031-25.808594 74.300781 96.511719zm0 0"/>
		<path d="m310.183594 117.53125c2.570312 0 5.140625-.980469 7.101562-2.941406l68.578125-68.578125c3.921875-3.921875 3.921875-10.277344 0-14.199219s-10.277343-3.921875-14.199219 0l-68.578124 68.578125c-3.921876 3.921875-3.921876 10.277344 0 14.199219 1.960937 1.960937 4.53125 2.941406 7.097656 2.941406zm0 0"/>
		<path d="m194.714844 114.589844c1.960937 1.960937 4.53125 2.941406 7.101562 2.941406 2.566406 0 5.136719-.980469 7.097656-2.941406 3.921876-3.921875 3.921876-10.277344 0-14.199219l-68.578124-68.578125c-3.921876-3.921875-10.277344-3.921875-14.199219 0s-3.921875 10.277344 0 14.199219zm0 0"/>
		<path d="m256 117.53125c5.542969 0 10.039062-4.496094 10.039062-10.039062v-56.753907c0-5.542969-4.496093-10.039062-10.039062-10.039062s-10.039062 4.496093-10.039062 10.039062v56.753907c0 5.542968 4.496093 10.039062 10.039062 10.039062zm0 0"/>
		<path d="m246.734375 14.351562c1.59375 3.863282 5.566406 6.398438 9.757813 6.179688 4.140624-.214844 7.777343-3.011719 9.058593-6.953125 1.285157-3.972656-.113281-8.5-3.441406-11.03125-3.394531-2.5859375-8.128906-2.730469-11.679687-.382813-3.960938 2.617188-5.496094 7.828126-3.695313 12.1875zm0 0"/>
	</symbol>
	<symbol id="education" viewBox="0 0 480 480">
		<title>education</title>
		<g>
			<g>
				<path d="M472.004,0c-0.001,0-0.003,0-0.004,0H8C3.583-0.001,0.001,3.579,0,7.996C0,7.997,0,7.999,0,8v160h16V16h448v176H184v16 h288c4.417,0.001,7.999-3.579,8-7.996c0-0.001,0-0.003,0-0.004V8C480.001,3.583,476.421,0.001,472.004,0z"/>
			</g>
		</g>
		<g>
			<g>
				<rect x="264" y="40" width="160" height="16"/>
			</g>
		</g>
		<g>
			<g>
				<rect x="288" y="88" width="160" height="16"/>
			</g>
		</g>
		<g>
			<g>
				<rect x="256" y="136" width="160" height="16"/>
			</g>
		</g>
		<g>
			<g>
				<path d="M255.362,68.974c-5.477-13.165-20.589-19.397-33.753-13.92c-0.225,0.094-0.449,0.19-0.671,0.29l-64.868,33.65 C158.628,83.692,159.971,77.886,160,72c0-22.091-17.909-40-40-40S80,49.909,80,72c0.03,8.683,2.913,17.116,8.205,24h-0.333 c-22.708,0.152-42.979,14.269-50.996,35.516L15.52,205.125c-5.084,13.206,1.5,28.034,14.707,33.118 c6.022,2.318,12.697,2.279,18.692-0.11c6.888-2.775,12.248-8.379,14.715-15.383L72,196.125v115.783 c-6.884-5.291-15.317-8.174-24-8.205c-22.058-0.033-39.967,17.822-40,39.881c-0.016,10.803,4.344,21.151,12.087,28.685 C7.799,378.547,0.048,391.163,0,404.961V472c-0.001,4.417,3.579,7.999,7.996,8c0.001,0,0.003,0,0.004,0h80 c4.417,0.001,7.999-3.579,8-7.996c0-0.001,0-0.003,0-0.004v-67.039c-0.039-11.339-5.307-22.025-14.276-28.961h60.553 c-8.97,6.936-14.238,17.622-14.276,28.961V472c-0.001,4.417,3.579,7.999,7.996,8c0.001,0,0.003,0,0.004,0h80 c4.417,0.001,7.999-3.579,8-7.996c0-0.001,0-0.003,0-0.004v-67.039c-0.048-13.798-7.799-26.414-20.087-32.692 c15.795-15.417,16.102-40.72,0.685-56.515c-9.494-9.727-23.281-13.962-36.598-11.242V140.859l73.441-38.133 C254.606,97.25,260.838,82.138,255.362,68.974z M120,48c13.255,0,24,10.745,24,24s-10.745,24-24,24 c-13.249-0.014-23.986-10.751-24-24C96,58.745,106.745,48,120,48z M48,319.703c13.255,0,24,10.745,24,24s-10.745,24-24,24 s-24-10.745-24-24C24.014,330.454,34.751,319.718,48,319.703z M80,464H16v-59.039c0.016-11.571,9.393-20.947,20.965-20.961h22.07 c11.571,0.014,20.949,9.39,20.965,20.961V464z M208,404.961V464h-64v-59.039c0.016-11.571,9.393-20.947,20.965-20.961h22.07 C198.607,384.014,207.984,393.39,208,404.961z M176,319.703c13.249,0.014,23.986,10.751,24,24c0,13.255-10.745,24-24,24 s-24-10.745-24-24S162.745,319.703,176,319.703z M240.723,82.32c-1.071,2.748-3.27,4.905-6.039,5.922l-78.367,40.656 C153.665,130.274,152,133.013,152,136v175.908c-14.985,11.08-20.176,31.133-12.448,48.092H128V224h-16v136H84.448 c2.276-5.03,3.475-10.48,3.522-16H88V144c-0.001-4.419-3.584-8-8.002-7.999c-3.493,0.001-6.582,2.268-7.63,5.601L48.48,217.617 c-1.81,4.992-7.325,7.572-12.317,5.761c-0.35-0.127-0.693-0.274-1.027-0.441c-4.615-2.385-6.574-7.953-4.468-12.703l21.355-73.609 c5.759-14.79,19.976-24.556,35.848-24.625h56.645c1.282,0.002,2.546-0.307,3.684-0.898l79.512-41.273 c4.77-1.99,10.268,0.046,12.59,4.664C241.533,76.927,241.686,79.767,240.723,82.32z"/>
			</g>
		</g>
		<g>
			<g>
				<path d="M331.913,372.269c15.823-15.416,16.153-40.741,0.737-56.564c-15.416-15.823-40.741-16.153-56.564-0.737 c-15.823,15.416-16.153,40.741-0.737,56.564c0.243,0.249,0.489,0.495,0.738,0.737c-12.287,6.278-20.039,18.894-20.087,32.692V472 c-0.001,4.417,3.579,7.999,7.996,8c0.001,0,0.003,0,0.004,0h80c4.417,0.001,7.999-3.579,8-7.996c0-0.001,0-0.003,0-0.004v-67.039 C351.952,391.163,344.201,378.547,331.913,372.269z M304,319.703c13.255,0,24,10.745,24,24s-10.745,24-24,24s-24-10.745-24-24 C280.014,330.454,290.751,319.718,304,319.703z M336,464h-64v-59.039c0.016-11.571,9.393-20.947,20.965-20.961h22.07 c11.571,0.014,20.949,9.39,20.965,20.961V464z"/>
			</g>
		</g>
		<g>
			<g>
				<path d="M459.913,372.269c15.823-15.416,16.153-40.741,0.737-56.564c-15.416-15.823-40.741-16.153-56.564-0.737 c-15.823,15.416-16.153,40.741-0.737,56.564c0.243,0.249,0.489,0.495,0.738,0.737c-12.287,6.278-20.039,18.894-20.087,32.692V472 c-0.001,4.417,3.579,7.999,7.996,8c0.001,0,0.003,0,0.004,0h80c4.417,0.001,7.999-3.579,8-7.996c0-0.001,0-0.003,0-0.004v-67.039 C479.952,391.163,472.201,378.547,459.913,372.269z M432,319.703c13.255,0,24,10.745,24,24s-10.745,24-24,24s-24-10.745-24-24 C408.014,330.454,418.751,319.718,432,319.703z M464,464h-64v-59.039c0.016-11.571,9.393-20.947,20.965-20.961h22.07 c11.571,0.014,20.949,9.39,20.965,20.961V464z"/>
			</g>
		</g>
	</symbol>
	<symbol id="target" viewBox="0 0 512.001 512.001">
		<title>target</title>
		<path d="m445.66 123.82c4.796 0 9.42-1.903 12.831-5.315l50.268-50.268c6.717-6.717 2.343-18.245-7.121-18.839l-26.75-1.679 17.455-17.455c2.929-2.929 2.929-7.678 0-10.606-2.93-2.929-7.678-2.929-10.607 0l-17.455 17.455-1.679-26.75c-.595-9.481-12.134-13.825-18.839-7.121l-50.269 50.268c-3.681 3.681-5.604 8.772-5.278 13.967l1.728 27.528c-41.954-35.772-96.025-56.286-153.303-56.286-130.79 0-236.641 105.838-236.641 236.64 0 59.031 21.86 115.57 61.555 159.2 2.789 3.063 7.532 3.287 10.595.5 3.064-2.788 3.288-7.531.501-10.595-37.177-40.862-57.651-93.815-57.651-149.105 0-122.213 99.428-221.641 221.641-221.641 57.272 0 111.164 21.95 151.475 59.559l-34.222 34.221c-30.949-28.409-72.156-45.794-117.253-45.794-95.753 0-173.654 77.901-173.654 173.654 0 27.558 6.648 55.007 19.228 79.381.001.001.001.002.002.003 29.149 56.481 87.854 94.27 154.425 94.27 82.029 0 153.372-57.939 170.046-138.346.841-4.056-1.765-8.026-5.821-8.867-4.055-.841-8.025 1.765-8.866 5.821-15.188 73.236-80.525 126.392-155.358 126.392-59.609 0-113.675-33.011-141.096-86.149 0-.001-.001-.002-.001-.003-11.65-22.575-17.558-46.968-17.558-72.502 0-87.482 71.172-158.654 158.654-158.654 40.97 0 78.428 15.702 106.649 41.397l-33.917 33.917c-19.464-17.008-44.914-27.328-72.732-27.328-61.022 0-110.667 49.645-110.667 110.667s49.645 110.667 110.667 110.667 110.668-49.645 110.668-110.667c0-27.818-10.32-53.268-27.329-72.732l33.919-33.919c25.496 27.994 41.161 65.09 41.393 105.728.023 4.127 3.377 7.457 7.499 7.457h.044c4.142-.024 7.48-3.401 7.457-7.543-.256-44.735-17.597-85.548-45.786-116.25l34.224-34.224c37.447 40.039 59.551 93.611 59.551 151.482-.001 122.216-99.428 221.644-221.641 221.644-50.629 0-100.135-17.514-139.398-49.315-3.221-2.606-7.94-2.111-10.549 1.107-2.607 3.219-2.111 7.942 1.107 10.549 41.926 33.958 94.785 52.659 148.84 52.659 130.79 0 236.641-105.838 236.641-236.641 0-51.213-16.094-99.954-46.54-140.952-3.152-4.245-6.435-8.36-9.828-12.357 29.401 1.847 27.816 1.77 28.746 1.77zm-113.351 151.539c0 52.751-42.916 95.667-95.668 95.667-52.751 0-95.667-42.916-95.667-95.667s42.916-95.667 95.667-95.667c23.682 0 45.378 8.653 62.102 22.958l-34.13 34.13c-7.864-5.717-17.528-9.102-27.972-9.102-26.291 0-47.681 21.39-47.681 47.681s21.39 47.681 47.681 47.681c26.292 0 47.682-21.39 47.682-47.681 0-10.445-3.385-20.109-9.102-27.972l34.13-34.13c14.304 16.724 22.958 38.42 22.958 62.102zm-100.972 5.304c2.93 2.929 7.678 2.929 10.607 0l22.482-22.482c3.1 4.995 4.896 10.88 4.896 17.179 0 18.021-14.661 32.681-32.682 32.681s-32.681-14.661-32.681-32.681 14.66-32.681 32.681-32.681c6.299 0 12.184 1.796 17.179 4.895l-22.483 22.483c-2.928 2.928-2.928 7.677.001 10.606zm171.85-214.126c-.057-.901.277-1.784.915-2.421l44.078-44.077 1.959 31.216-45.082 45.082zm12.477 40.406 45.082-45.082 31.216 1.959-44.078 44.078c-.637.638-1.527.977-2.421.915z"/>
	</symbol>
	<symbol id="online-learning" viewBox="0 0 512 512">
		<title>online-learning</title>
		<path id="XMLID_284_" d="m242.825 215h-128.984c-18.477 0-33.508 15.031-33.508 33.508v88.984c0 18.477 15.031 33.508 33.508 33.508h128.984c18.477 0 33.508-15.031 33.508-33.508v-88.984c0-18.477-15.031-33.508-33.508-33.508zm13.508 122.492c0 7.448-6.06 13.508-13.508 13.508h-128.984c-7.448 0-13.508-6.06-13.508-13.508v-88.984c0-7.448 6.06-13.508 13.508-13.508h128.984c7.448 0 13.508 6.06 13.508 13.508z"/>
		<path id="XMLID_285_" d="m196.612 284.34-26.558-15.333c-3.094-1.787-6.906-1.787-10 0-3.094 1.786-5 5.088-5 8.66v30.666c0 3.572 1.906 6.874 5 8.66 1.547.894 3.273 1.34 5 1.34s3.453-.446 5-1.34l26.558-15.333c3.094-1.786 5-5.088 5-8.66s-1.906-6.874-5-8.66z"/>
		<path id="XMLID_288_" d="m506.617 93.13-124.879-65c-2.895-1.506-6.34-1.506-9.234 0l-124.88 65c-3.308 1.722-5.383 5.141-5.383 8.87s2.075 7.148 5.383 8.87l48.084 25.028v21.102h-200.708c-36.944 0-67 30.056-67 67v185h-18c-5.522 0-10 4.478-10 10 0 36.393 29.607 66 66 66h326c36.393 0 66-29.607 66-66 0-5.522-4.478-10-10-10h-18v-185c0-1.402-.06-2.802-.147-4.201l22.589-9.595c3.693-1.568 6.091-5.192 6.091-9.204v-65.102l33.467-17.42v61.203c0 5.522 4.478 10 10 10s10-4.478 10-10v-77.681c0-3.73-2.075-7.149-5.383-8.87zm-96.617 315.87h-136c-5.522 0-10 4.478-10 10s4.478 10 10 10h162.905c-4.579 20.571-22.975 36-44.905 36h-326c-21.931 0-40.326-15.429-44.905-36h162.905c5.522 0 10-4.478 10-10s-4.478-10-10-10h-136v-185c0-25.916 21.084-47 47-47h200.708v24c0 4.012 2.397 7.636 6.091 9.204l71.413 30.333c1.249.53 2.579.796 3.909.796s2.66-.266 3.909-.796l28.97-12.305zm28.533-214.617-61.412 26.086-61.413-26.086v-48.075l56.796 29.562c1.447.753 3.032 1.13 4.617 1.13s3.17-.377 4.617-1.13l56.795-29.562zm-61.412-38.657-103.221-53.726 103.221-53.727 103.22 53.727z"/>
		<path id="XMLID_291_" d="m370.05 94.929c-1.86 1.86-2.93 4.44-2.93 7.07s1.069 5.21 2.93 7.069c1.86 1.86 4.44 2.931 7.07 2.931s5.21-1.07 7.069-2.931c1.86-1.859 2.931-4.439 2.931-7.069s-1.07-5.21-2.931-7.07c-1.859-1.86-4.43-2.93-7.069-2.93-2.63.001-5.21 1.07-7.07 2.93z"/>
		<path id="XMLID_297_" d="m371.667 351h-54.667c-5.522 0-10 4.478-10 10s4.478 10 10 10h54.667c5.522 0 10-4.478 10-10s-4.478-10-10-10z"/>
		<path id="XMLID_298_" d="m371.667 303h-54.667c-5.522 0-10 4.478-10 10s4.478 10 10 10h54.667c5.522 0 10-4.478 10-10s-4.478-10-10-10z"/>
		<path id="XMLID_299_" d="m229 409c-2.63 0-5.21 1.069-7.07 2.93s-2.93 4.429-2.93 7.07c0 2.63 1.069 5.21 2.93 7.069 1.86 1.86 4.44 2.931 7.07 2.931s5.21-1.07 7.069-2.931c1.861-1.859 2.931-4.439 2.931-7.069s-1.07-5.21-2.931-7.07c-1.859-1.861-4.439-2.93-7.069-2.93z"/>
	</symbol>
</svg>